<svg width="20" height="20" viewBox="0 0 20 20" fill="none" xmlns="http://www.w3.org/2000/svg">
<g clip-path="url(#clip0_176_367)">
<path d="M20 12.2001C20 10.4114 18.748 8.85077 16.884 8.0061C16.994 8.3961 17.0573 8.79877 17.0686 9.2121C17.2546 9.32277 17.4346 9.4421 17.6026 9.5721C18.5426 10.2974 19.0613 11.2301 19.0613 12.2001C19.0613 13.1694 18.5446 14.1028 17.6026 14.8268C16.5713 15.6221 15.1846 16.0608 13.6986 16.0608C12.6966 16.0608 11.74 15.8608 10.9066 15.4881C10.3893 15.5901 9.8513 15.6548 9.2973 15.6774C10.434 16.5314 11.986 17.0588 13.6986 17.0588C14.798 17.0588 15.8313 16.8428 16.7306 16.4608L19.0246 17.6314L18.5613 15.2908C19.4593 14.4508 20 13.3741 20 12.2001Z" fill="#6E6E6E"/>
<path d="M16.416 8.55933C16.4033 8.14666 16.3413 7.74333 16.232 7.35399C15.4313 4.50466 12.1433 2.37 8.20933 2.37C3.67533 2.37066 0 5.20533 0 8.70199C0 10.232 0.703333 11.634 1.87467 12.7293L1.27067 15.7773L4.25933 14.2527C5.43133 14.75 6.77733 15.034 8.20933 15.034C8.35533 15.034 8.50067 15.03 8.64467 15.0247C9.19733 15.0027 9.736 14.9373 10.2547 14.8347C13.7987 14.134 16.4187 11.654 16.4187 8.70199C16.418 8.65466 16.4173 8.60733 16.416 8.55933ZM13.2967 12.126C12.052 13.0847 10.41 13.646 8.63467 13.7233C8.494 13.7307 8.352 13.734 8.20867 13.734C7.934 13.734 7.66267 13.722 7.394 13.6987C5.76867 13.5627 4.27467 13.0167 3.122 12.1273C1.89733 11.1827 1.22267 9.96666 1.22267 8.70333C1.22267 7.43999 1.89733 6.22399 3.122 5.27933C4.46533 4.24333 6.272 3.67266 8.20867 3.67266C10.146 3.67266 11.9533 4.24333 13.2953 5.27933C13.9033 5.74799 14.3747 6.28333 14.6973 6.85799C14.9013 7.22266 15.0447 7.60333 15.124 7.99266C15.1713 8.22666 15.1953 8.46399 15.1953 8.70266C15.1953 9.96533 14.5213 11.1813 13.2967 12.126Z" fill="#6E6E6E"/>
<path d="M11.1214 9.61911C11.6173 9.61911 12.0194 9.21685 12.0194 8.72063C12.0194 8.22441 11.6173 7.82214 11.1214 7.82214C10.6254 7.82214 10.2234 8.22441 10.2234 8.72063C10.2234 9.21685 10.6254 9.61911 11.1214 9.61911Z" fill="#6E6E6E"/>
<path d="M8.20934 9.61911C8.70529 9.61911 9.10734 9.21685 9.10734 8.72063C9.10734 8.22441 8.70529 7.82214 8.20934 7.82214C7.71339 7.82214 7.31134 8.22441 7.31134 8.72063C7.31134 9.21685 7.71339 9.61911 8.20934 9.61911Z" fill="#6E6E6E"/>
<path d="M5.29735 9.61971C5.79367 9.61971 6.19601 9.21715 6.19601 8.72056C6.19601 8.22397 5.79367 7.82141 5.29735 7.82141C4.80103 7.82141 4.39868 8.22397 4.39868 8.72056C4.39868 9.21715 4.80103 9.61971 5.29735 9.61971Z" fill="#6E6E6E"/>
</g>
<defs>
<clipPath id="clip0_176_367">
<rect width="20" height="20" fill="white"/>
</clipPath>
</defs>
</svg>
