<svg width="92" height="14" viewBox="0 0 92 14" fill="none" xmlns="http://www.w3.org/2000/svg">
<g clip-path="url(#clip0_11130_3)">
<path d="M13.7429 4.98381C13.5829 4.80424 13.3643 4.68744 13.126 4.65428V4.65378L9.4053 4.1398L7.93291 0.621541C7.71792 0.106566 7.12616 -0.136611 6.61122 0.0783842C6.36573 0.180887 6.17053 0.37605 6.06806 0.621541L4.59567 4.1398L0.874924 4.65378C0.320577 4.73094 -0.0662625 5.24293 0.0109003 5.79728C0.0440621 6.0355 0.160861 6.25416 0.340439 6.41417L3.14375 8.91399L2.56776 12.8367C2.50536 13.235 2.68831 13.6319 3.03173 13.8431C3.37032 14.0596 3.80585 14.0516 4.13615 13.8226L7.00046 11.8747L9.86477 13.8246C10.327 14.1383 10.9559 14.0179 11.2697 13.5557C11.4122 13.3457 11.4706 13.0897 11.4332 12.8387L10.8572 8.91446L13.6605 6.41464C14.0784 6.0423 14.1153 5.40168 13.7429 4.98381ZM9.99026 8.34951C9.86485 8.46156 9.80418 8.62913 9.82876 8.79549L10.4287 12.9952L7.28295 10.8564C7.11336 10.7411 6.89057 10.7411 6.72098 10.8564L3.5567 12.9822L4.17215 8.7935C4.19606 8.62781 4.13542 8.46115 4.01065 8.34953L1.01085 5.6457L5.01459 5.09323C5.18989 5.06906 5.33932 4.95402 5.40755 4.79076L7.00643 1.00003C7.00825 1.00226 7.0096 1.00481 7.01045 1.00753L8.59284 4.78877C8.66107 4.95203 8.81053 5.06707 8.9858 5.09124L12.9945 5.6682L9.99026 8.34951Z" fill="#FFA800"/>
</g>
<g clip-path="url(#clip1_11130_3)">
<path d="M33.5007 4.98369C33.3407 4.80411 33.1221 4.68732 32.8838 4.65415V4.65366L29.1631 4.13968L27.6907 0.621419C27.4757 0.106444 26.8839 -0.136733 26.369 0.0782621C26.1235 0.180765 25.9283 0.375928 25.8258 0.621419L24.3535 4.13968L20.6327 4.65366C20.0784 4.73082 19.6915 5.24281 19.7687 5.79715C19.8018 6.03538 19.9186 6.25404 20.0982 6.41405L22.9015 8.91387L22.3255 12.8366C22.2631 13.2349 22.4461 13.6318 22.7895 13.843C23.1281 14.0595 23.5636 14.0514 23.8939 13.8225L26.7582 11.8746L29.6225 13.8245C30.0847 14.1382 30.7137 14.0178 31.0274 13.5556C31.17 13.3456 31.2284 13.0896 31.191 12.8386L30.615 8.91434L33.4183 6.41451C33.8362 6.04218 33.8731 5.40155 33.5007 4.98369ZM29.748 8.34938C29.6226 8.46144 29.562 8.629 29.5865 8.79537L30.1865 12.9951L27.0407 10.8562C26.8711 10.741 26.6484 10.741 26.4788 10.8562L23.3145 12.9821L23.9299 8.79338C23.9538 8.62769 23.8932 8.46103 23.7684 8.34941L20.7686 5.64558L24.7724 5.09311C24.9477 5.06894 25.0971 4.9539 25.1653 4.79064L26.7642 0.999909C26.766 1.00214 26.7674 1.00468 26.7682 1.00741L28.3506 4.78865C28.4188 4.95191 28.5683 5.06695 28.7436 5.09112L32.7523 5.66808L29.748 8.34938Z" fill="#FFA800"/>
</g>
<g clip-path="url(#clip2_11130_3)">
<path d="M52.7795 4.98369C52.6195 4.80411 52.4009 4.68732 52.1626 4.65415V4.65366L48.4419 4.13968L46.9695 0.621419C46.7545 0.106444 46.1628 -0.136733 45.6478 0.0782621C45.4023 0.180765 45.2071 0.375928 45.1047 0.621419L43.6323 4.13968L39.9115 4.65366C39.3572 4.73082 38.9703 5.24281 39.0475 5.79715C39.0807 6.03538 39.1975 6.25404 39.377 6.41405L42.1803 8.91387L41.6043 12.8366C41.542 13.2349 41.7249 13.6318 42.0683 13.843C42.4069 14.0595 42.8424 14.0514 43.1727 13.8225L46.037 11.8746L48.9014 13.8245C49.3635 14.1382 49.9925 14.0178 50.3063 13.5556C50.4488 13.3456 50.5072 13.0896 50.4698 12.8386L49.8938 8.91434L52.6971 6.41451C53.115 6.04218 53.1519 5.40155 52.7795 4.98369ZM49.0269 8.34938C48.9014 8.46144 48.8408 8.629 48.8654 8.79537L49.4653 12.9951L46.3195 10.8562C46.15 10.741 45.9272 10.741 45.7576 10.8562L42.5933 12.9821L43.2087 8.79338C43.2326 8.62769 43.172 8.46103 43.0472 8.34941L40.0474 5.64558L44.0512 5.09311C44.2265 5.06894 44.3759 4.9539 44.4441 4.79064L46.043 0.999909C46.0448 1.00214 46.0462 1.00468 46.047 1.00741L47.6294 4.78865C47.6977 4.95191 47.8471 5.06695 48.0224 5.09112L52.0311 5.66808L49.0269 8.34938Z" fill="#FFA800"/>
</g>
<g clip-path="url(#clip3_11130_3)">
<path d="M72.0589 4.98369C71.8988 4.80411 71.6802 4.68732 71.442 4.65415V4.65366L67.7212 4.13968L66.2488 0.621419C66.0338 0.106444 65.4421 -0.136733 64.9271 0.0782621C64.6816 0.180765 64.4865 0.375928 64.384 0.621419L62.9116 4.13968L59.1908 4.65366C58.6365 4.73082 58.2497 5.24281 58.3268 5.79715C58.36 6.03538 58.4768 6.25404 58.6564 6.41405L61.4597 8.91387L60.8837 12.8366C60.8213 13.2349 61.0042 13.6318 61.3476 13.843C61.6862 14.0595 62.1218 14.0514 62.4521 13.8225L65.3164 11.8746L68.1807 13.8245C68.6429 14.1382 69.2719 14.0178 69.5856 13.5556C69.7281 13.3456 69.7865 13.0896 69.7491 12.8386L69.1731 8.91434L71.9765 6.41451C72.3943 6.04218 72.4312 5.40155 72.0589 4.98369ZM68.3062 8.34938C68.1808 8.46144 68.1201 8.629 68.1447 8.79537L68.7446 12.9951L65.5989 10.8562C65.4293 10.741 65.2065 10.741 65.0369 10.8562L61.8726 12.9821L62.4881 8.79338C62.512 8.62769 62.4513 8.46103 62.3266 8.34941L59.3268 5.64558L63.3305 5.09311C63.5058 5.06894 63.6552 4.9539 63.7235 4.79064L65.3224 0.999909C65.3242 1.00214 65.3255 1.00468 65.3264 1.00741L66.9088 4.78865C66.977 4.95191 67.1264 5.06695 67.3017 5.09112L71.3105 5.66808L68.3062 8.34938Z" fill="#FFA800"/>
</g>
<g clip-path="url(#clip4_11130_3)">
<path d="M91.6697 4.98369C91.5097 4.80411 91.291 4.68732 91.0528 4.65415V4.65366L87.3321 4.13968L85.8597 0.621419C85.6447 0.106444 85.0529 -0.136733 84.538 0.0782621C84.2925 0.180765 84.0973 0.375928 83.9948 0.621419L82.5224 4.13968L78.8017 4.65366C78.2473 4.73082 77.8605 5.24281 77.9377 5.79715C77.9708 6.03538 78.0876 6.25404 78.2672 6.41405L81.0705 8.91387L80.4945 12.8366C80.4321 13.2349 80.6151 13.6318 80.9585 13.843C81.2971 14.0595 81.7326 14.0514 82.0629 13.8225L84.9272 11.8746L87.7915 13.8245C88.2537 14.1382 88.8827 14.0178 89.1964 13.5556C89.339 13.3456 89.3974 13.0896 89.3599 12.8386L88.784 8.91434L91.5873 6.41451C92.0052 6.04218 92.0421 5.40155 91.6697 4.98369ZM87.917 8.34938C87.7916 8.46144 87.7309 8.629 87.7555 8.79537L88.3555 12.9951L85.2097 10.8562C85.0401 10.741 84.8173 10.741 84.6477 10.8562L81.4835 12.9821L82.0989 8.79338C82.1228 8.62769 82.0622 8.46103 81.9374 8.34941L78.9376 5.64558L82.9413 5.09311C83.1166 5.06894 83.2661 4.9539 83.3343 4.79064L84.9332 0.999909C84.935 1.00214 84.9364 1.00468 84.9372 1.00741L86.5196 4.78865C86.5878 4.95191 86.7373 5.06695 86.9126 5.09112L90.9213 5.66808L87.917 8.34938Z" fill="#FFA800"/>
</g>
<defs>
<clipPath id="clip0_11130_3">
<rect width="14" height="14" fill="white"/>
</clipPath>
<clipPath id="clip1_11130_3">
<rect width="14" height="14" fill="white" transform="translate(19.7578)"/>
</clipPath>
<clipPath id="clip2_11130_3">
<rect width="14" height="14" fill="white" transform="translate(39.0366)"/>
</clipPath>
<clipPath id="clip3_11130_3">
<rect width="14" height="14" fill="white" transform="translate(58.3159)"/>
</clipPath>
<clipPath id="clip4_11130_3">
<rect width="14" height="14" fill="white" transform="translate(77.9268)"/>
</clipPath>
</defs>
</svg>
