<svg width="91" height="14" viewBox="0 0 91 14" fill="none" xmlns="http://www.w3.org/2000/svg">
<g clip-path="url(#clip0_11130_2)">
<path d="M13.9633 5.36979C13.8712 5.08631 13.6197 4.8856 13.3234 4.85879L9.28203 4.49189L7.68485 0.752571C7.56693 0.477847 7.29861 0.300537 6.99996 0.300537C6.70131 0.300537 6.43289 0.477847 6.31572 0.752571L4.71854 4.49189L0.676511 4.85879C0.38021 4.88614 0.129306 5.08684 0.036592 5.36979C-0.0555879 5.65327 0.0295423 5.96421 0.253637 6.16074L3.3086 8.83951L2.40785 12.8068C2.34194 13.0985 2.45517 13.4001 2.6972 13.5751C2.8273 13.6696 2.98015 13.7168 3.13354 13.7168C3.26534 13.7168 3.39726 13.6818 3.51507 13.6113L6.99996 11.5276L10.4842 13.6113C10.7398 13.764 11.0612 13.75 11.3027 13.5751C11.5448 13.4001 11.658 13.0985 11.5921 12.8068L10.6913 8.83951L13.7463 6.16074C13.9703 5.96421 14.0555 5.65391 13.9633 5.36979Z" fill="#FFA800"/>
</g>
<g clip-path="url(#clip1_11130_2)">
<path d="M31.6147 5.36979C31.5225 5.08631 31.2711 4.8856 30.9748 4.85879L26.9334 4.49189L25.3362 0.752571C25.2183 0.477847 24.95 0.300537 24.6513 0.300537C24.3527 0.300537 24.0843 0.477847 23.9671 0.752571L22.3699 4.49189L18.3279 4.85879C18.0316 4.88614 17.7807 5.08684 17.688 5.36979C17.5958 5.65327 17.6809 5.96421 17.905 6.16074L20.96 8.83951L20.0592 12.8068C19.9933 13.0985 20.1065 13.4001 20.3486 13.5751C20.4787 13.6696 20.6315 13.7168 20.7849 13.7168C20.9167 13.7168 21.0486 13.6818 21.1664 13.6113L24.6513 11.5276L28.1356 13.6113C28.3912 13.764 28.7126 13.75 28.9541 13.5751C29.1961 13.4001 29.3093 13.0985 29.2434 12.8068L28.3427 8.83951L31.3977 6.16074C31.6216 5.96421 31.7069 5.65391 31.6147 5.36979Z" fill="#FFA800"/>
</g>
<g clip-path="url(#clip2_11130_2)">
<path d="M50.8933 5.36979C50.8011 5.08631 50.5496 4.8856 50.2533 4.85879L46.212 4.49189L44.6148 0.752571C44.4969 0.477847 44.2285 0.300537 43.9299 0.300537C43.6312 0.300537 43.3628 0.477847 43.2456 0.752571L41.6485 4.49189L37.6064 4.85879C37.3101 4.88614 37.0592 5.08684 36.9665 5.36979C36.8743 5.65327 36.9595 5.96421 37.1836 6.16074L40.2385 8.83951L39.3378 12.8068C39.2719 13.0985 39.3851 13.4001 39.6271 13.5751C39.7572 13.6696 39.9101 13.7168 40.0635 13.7168C40.1953 13.7168 40.3272 13.6818 40.445 13.6113L43.9299 11.5276L47.4141 13.6113C47.6697 13.764 47.9911 13.75 48.2326 13.5751C48.4747 13.4001 48.5879 13.0985 48.522 12.8068L47.6213 8.83951L50.6762 6.16074C50.9002 5.96421 50.9854 5.65391 50.8933 5.36979Z" fill="#FFA800"/>
</g>
<g clip-path="url(#clip3_11130_2)">
<path d="M70.504 5.36979C70.4118 5.08631 70.1604 4.8856 69.8641 4.85879L65.8227 4.49189L64.2255 0.752571C64.1076 0.477847 63.8393 0.300537 63.5406 0.300537C63.242 0.300537 62.9736 0.477847 62.8564 0.752571L61.2592 4.49189L57.2172 4.85879C56.9209 4.88614 56.67 5.08684 56.5773 5.36979C56.4851 5.65327 56.5702 5.96421 56.7943 6.16074L59.8493 8.83951L58.9485 12.8068C58.8826 13.0985 58.9958 13.4001 59.2379 13.5751C59.368 13.6696 59.5208 13.7168 59.6742 13.7168C59.806 13.7168 59.9379 13.6818 60.0557 13.6113L63.5406 11.5276L67.0249 13.6113C67.2805 13.764 67.6019 13.75 67.8434 13.5751C68.0854 13.4001 68.1987 13.0985 68.1327 12.8068L67.232 8.83951L70.287 6.16074C70.5109 5.96421 70.5962 5.65391 70.504 5.36979Z" fill="#FFA800"/>
</g>
<g clip-path="url(#clip4_11130_2)">
<path d="M90.504 5.36979C90.4118 5.08631 90.1604 4.8856 89.8641 4.85879L85.8227 4.49189L84.2255 0.752571C84.1076 0.477847 83.8393 0.300537 83.5406 0.300537C83.242 0.300537 82.9735 0.477847 82.8564 0.752571L81.2592 4.49189L77.2172 4.85879C76.9209 4.88614 76.67 5.08684 76.5772 5.36979C76.4851 5.65327 76.5702 5.96421 76.7943 6.16074L79.8493 8.83951L78.9485 12.8068C78.8826 13.0985 78.9958 13.4001 79.2379 13.5751C79.368 13.6696 79.5208 13.7168 79.6742 13.7168C79.806 13.7168 79.9379 13.6818 80.0557 13.6113L83.5406 11.5276L87.0249 13.6113C87.2805 13.764 87.6019 13.75 87.8434 13.5751C88.0854 13.4001 88.1986 13.0985 88.1327 12.8068L87.232 8.83951L90.2869 6.16074C90.5109 5.96421 90.5962 5.65391 90.504 5.36979Z" fill="#FFA800"/>
</g>
<defs>
<clipPath id="clip0_11130_2">
<rect width="14" height="14" fill="white"/>
</clipPath>
<clipPath id="clip1_11130_2">
<rect width="14" height="14" fill="white" transform="translate(17.6514)"/>
</clipPath>
<clipPath id="clip2_11130_2">
<rect width="14" height="14" fill="white" transform="translate(36.9299)"/>
</clipPath>
<clipPath id="clip3_11130_2">
<rect width="14" height="14" fill="white" transform="translate(56.5407)"/>
</clipPath>
<clipPath id="clip4_11130_2">
<rect width="14" height="14" fill="white" transform="translate(76.5406)"/>
</clipPath>
</defs>
</svg>
