<svg width="16" height="16" viewBox="0 0 16 16" fill="none" xmlns="http://www.w3.org/2000/svg">
<g clip-path="url(#clip0_41_792)">
<path d="M15.5739 2.59753L13.3921 0.413883C12.8424 -0.136307 11.886 -0.137364 11.3342 0.41494L1.56011 10.2855C1.51678 10.3292 1.48552 10.3829 1.46847 10.4418L0.0139569 15.5371C-0.0222815 15.664 0.013241 15.8008 0.10665 15.8943C0.175888 15.9636 0.26858 16.0009 0.363762 16.0009C0.397137 16.0009 0.430886 15.9963 0.463545 15.987L5.55441 14.5313C5.61336 14.5142 5.66698 14.4829 5.71065 14.4396L15.5739 4.6561C15.8488 4.38102 16 4.01564 16 3.62683C16 3.23803 15.8488 2.87261 15.5739 2.59753ZM9.74958 3.06011L11.0881 4.39865L4.09966 11.3871L3.59812 10.3837C3.53631 10.2605 3.41062 10.1827 3.27282 10.1827H2.69049L9.74958 3.06011ZM0.893225 15.1078L1.36688 13.4497L2.55126 14.6341L0.893225 15.1078ZM5.09099 13.9086L3.35117 14.4056L1.59539 12.6498L2.0924 10.91H3.048L3.67475 12.1635C3.7099 12.2339 3.76707 12.291 3.8374 12.3262L5.09095 12.9529V13.9086H5.09099ZM5.81828 13.3105V12.7282C5.81828 12.5904 5.74052 12.4647 5.61728 12.4029L4.61385 11.9013L11.6023 4.91287L12.9408 6.25141L5.81828 13.3105ZM15.0607 4.15043L13.4574 5.7395L10.2615 2.5436L11.8495 0.941301C12.1243 0.666427 12.603 0.666427 12.8779 0.941301L15.0597 3.12311C15.1971 3.26053 15.2728 3.44305 15.2728 3.6373C15.2728 3.83155 15.1971 4.01407 15.0607 4.15043Z" fill="#437FC8"/>
</g>
<defs>
<clipPath id="clip0_41_792">
<rect width="16" height="16" fill="white"/>
</clipPath>
</defs>
</svg>
