<svg width="20" height="20" viewBox="0 0 20 20" fill="none" xmlns="http://www.w3.org/2000/svg">
<g clip-path="url(#clip0_176_72)">
<path d="M19.1595 7.05887C19.1597 5.18051 18.4235 3.40988 17.0866 2.07306C15.7498 0.736237 13.9792 0 12.1007 0H7.91824C7.91809 0 7.91809 0 7.91809 0C6.03989 0 4.2691 0.736237 2.93243 2.07291C1.59561 3.40988 0.859375 5.18051 0.859375 7.05887V10.3465C0.859375 11.8013 1.3031 13.2005 2.14264 14.3933C2.8833 15.4456 3.87939 16.2675 5.04074 16.7886V18.6771C5.04074 19.6535 5.58746 20 6.0556 20C6.39008 20 6.72455 19.8349 7.05017 19.5094L9.15405 17.4055L12.1008 17.4054C13.9792 17.4054 15.7498 16.6692 17.0866 15.3325C18.4235 13.9957 19.1597 12.2249 19.1597 10.3465L19.1595 7.05887ZM12.1008 16.2335L8.91144 16.2337C8.75595 16.2337 8.60703 16.2953 8.49716 16.4052L6.22162 18.6807C6.21872 18.6838 6.21567 18.6867 6.21262 18.6896C6.21262 18.6855 6.21262 18.6812 6.21262 18.6771V16.3976C6.21262 16.1545 6.06262 15.9367 5.83557 15.8501C3.56018 14.9818 2.0314 12.7701 2.0314 10.3465V7.05887C2.0314 5.49347 2.64572 4.01703 3.76114 2.90146C4.87656 1.78619 6.35284 1.17188 7.91824 1.17188H12.1007C13.6661 1.17188 15.1425 1.78619 16.2579 2.90161C17.3735 4.01718 17.9878 5.49362 17.9877 7.05887L17.9878 10.3465C17.9877 13.5927 15.3468 16.2335 12.1008 16.2335Z" fill="#437FC8"/>
<path d="M11.5677 9.58353C11.3389 9.35464 10.968 9.35464 10.7391 9.58353L10.2658 10.0567L8.43168 8.22275L8.905 7.74957C9.01487 7.63971 9.07666 7.49063 9.07666 7.33514C9.07666 7.17981 9.01487 7.03073 8.905 6.92087L6.68607 4.70193C6.57621 4.59207 6.42728 4.53027 6.27179 4.53027C6.11646 4.53027 5.96738 4.59207 5.85752 4.70193L4.30417 6.25528C3.46418 7.09528 3.46418 8.46231 4.30433 9.30276L9.18577 14.1845C9.59165 14.5902 10.1329 14.8136 10.7095 14.8136C11.2863 14.8136 11.8275 14.5902 12.2334 14.1845L13.7867 12.6313C13.8966 12.5213 13.9584 12.3724 13.9584 12.2169C13.9584 12.0616 13.8966 11.9125 13.7867 11.8026L11.5677 9.58353ZM11.4047 13.3557C11.2202 13.5401 10.9733 13.6418 10.7095 13.6418C10.4457 13.6418 10.1988 13.5401 10.0143 13.3557L5.13303 8.47406C4.74973 8.09076 4.74958 7.46698 5.13288 7.08383L6.27179 5.94476L7.66202 7.33514L7.18869 7.80832C7.07883 7.91818 7.01703 8.06726 7.01703 8.2226C7.01703 8.37808 7.07883 8.52701 7.18869 8.63702L9.85135 11.2997C10.0802 11.5284 10.4512 11.5286 10.6801 11.2997L11.1534 10.8265L12.5436 12.2167L11.4047 13.3557Z" fill="#437FC8"/>
<path d="M10.1517 2.59204C9.82809 2.59204 9.5658 2.85434 9.5658 3.17798C9.5658 3.50146 9.82809 3.76392 10.1517 3.76392C11.4927 3.76392 12.7535 4.28607 13.7017 5.23441C14.65 6.18259 15.1722 7.44327 15.1722 8.78436C15.1722 9.10785 15.4345 9.3703 15.7581 9.3703C16.0816 9.3703 16.3441 9.108 16.3441 8.78436C16.3441 7.13031 15.7 5.57529 14.5304 4.4057C13.3608 3.23611 11.8058 2.59204 10.1517 2.59204Z" fill="#437FC8"/>
<path d="M12.6618 8.78409C12.6618 9.10757 12.9243 9.37003 13.2477 9.37003C13.5714 9.37003 13.8337 9.10757 13.8337 8.78409C13.8337 6.75391 12.1819 5.10229 10.1517 5.10229C9.82809 5.10229 9.5658 5.36459 9.5658 5.68823C9.5658 6.01187 9.82809 6.27417 10.1517 6.27417C11.5359 6.27417 12.6618 7.40012 12.6618 8.78409Z" fill="#437FC8"/>
</g>
<defs>
<clipPath id="clip0_176_72">
<rect width="20" height="20" fill="white"/>
</clipPath>
</defs>
</svg>
