<svg width="42" height="42" viewBox="0 0 42 42" fill="none" xmlns="http://www.w3.org/2000/svg">
<path d="M12.6085 27.6538H35.7506C38.3747 27.6538 40.5154 25.5131 40.5154 22.889V13.1523C40.5154 13.1436 40.5154 13.1264 40.5154 13.1177C40.5154 13.0918 40.5154 13.0746 40.5154 13.0487C40.5154 13.0314 40.5154 13.0142 40.5067 12.9969C40.5067 12.9796 40.4981 12.9537 40.4981 12.9365C40.4981 12.9192 40.4895 12.9019 40.4895 12.8847C40.4808 12.8674 40.4808 12.8502 40.4722 12.8243C40.4636 12.807 40.4636 12.7897 40.4549 12.7725C40.4463 12.7552 40.4463 12.7379 40.4377 12.7207C40.429 12.7034 40.4204 12.6862 40.4118 12.6603C40.4031 12.643 40.3945 12.6257 40.3859 12.6171C40.3773 12.5998 40.3686 12.5826 40.36 12.5653C40.3514 12.548 40.3427 12.5394 40.3341 12.5221C40.3255 12.5049 40.3082 12.4876 40.2996 12.4704C40.2909 12.4531 40.2823 12.4445 40.265 12.4272C40.2564 12.4099 40.2391 12.4013 40.2305 12.384C40.2219 12.3668 40.2046 12.3581 40.196 12.3409C40.1874 12.3236 40.1701 12.315 40.1615 12.3063C40.1442 12.2891 40.1356 12.2805 40.1183 12.2632C40.101 12.2546 40.0924 12.2373 40.0751 12.2287C40.0579 12.22 40.0406 12.2028 40.0233 12.1941C40.0061 12.1855 39.9974 12.1769 39.9802 12.1682C39.9629 12.1596 39.9457 12.151 39.9284 12.1337C39.9111 12.1251 39.8939 12.1164 39.8766 12.1078C39.8593 12.0992 39.8421 12.0906 39.8248 12.0819C39.8075 12.0733 39.7903 12.0647 39.773 12.056C39.7558 12.0474 39.7385 12.0474 39.7212 12.0388C39.704 12.0301 39.6781 12.0215 39.6608 12.0215C39.6435 12.0215 39.6263 12.0129 39.6176 12.0129C39.5918 12.0042 39.5745 12.0042 39.5486 12.0042C39.54 12.0042 39.5313 11.9956 39.5141 11.9956L10.183 7.94725V3.85575C10.183 3.81259 10.183 3.76943 10.1743 3.7349C10.1743 3.72627 10.1743 3.71764 10.1657 3.70037C10.1657 3.67448 10.1571 3.64858 10.1571 3.62269C10.1484 3.59679 10.1484 3.57953 10.1398 3.55363C10.1398 3.53637 10.1312 3.52774 10.1312 3.51047C10.1225 3.48458 10.1139 3.45868 10.1053 3.43279C10.1053 3.42415 10.0967 3.40689 10.0967 3.39826C10.088 3.37236 10.0794 3.3551 10.0621 3.3292C10.0535 3.32057 10.0535 3.30331 10.0449 3.29468C10.0362 3.27741 10.0276 3.26015 10.0103 3.24289C10.0017 3.22562 9.99307 3.21699 9.98444 3.19973C9.9758 3.18246 9.96717 3.17383 9.95854 3.15657C9.94991 3.1393 9.93264 3.12204 9.92401 3.10478C9.91538 3.09614 9.90675 3.08751 9.89812 3.07888C9.88085 3.06162 9.86359 3.04435 9.84633 3.02709C9.83769 3.01846 9.82906 3.00982 9.82043 3.00119C9.80317 2.98393 9.7859 2.96667 9.76001 2.9494C9.75138 2.94077 9.73411 2.93214 9.72548 2.92351C9.70822 2.90624 9.69095 2.89761 9.67369 2.88035C9.64779 2.86308 9.6219 2.84582 9.60463 2.83719C9.596 2.82856 9.58737 2.82856 9.57874 2.81992C9.54421 2.80266 9.50105 2.7854 9.46652 2.76813L3.10484 0.0922531C2.50924 -0.158071 1.82732 0.118149 1.57699 0.713748C1.32667 1.30935 1.60289 1.99126 2.19849 2.24159L7.84373 4.62398V9.90669V10.744V17.1661V22.9063V30.1571C7.84373 32.574 9.65642 34.5766 11.9957 34.8787C11.5727 35.5865 11.3224 36.4152 11.3224 37.2956C11.3224 39.8938 13.4372 42 16.0267 42C18.6163 42 20.7311 39.8852 20.7311 37.2956C20.7311 36.4324 20.4981 35.6124 20.0837 34.9218H30.5628C30.1485 35.621 29.9154 36.4324 29.9154 37.2956C29.9154 39.8938 32.0302 42 34.6198 42C37.2094 42 39.3242 39.8852 39.3242 37.2956C39.3242 34.706 37.2094 32.5912 34.6198 32.5912H12.6085C11.262 32.5912 10.1743 31.495 10.1743 30.1571V26.9978C10.8822 27.4121 11.7194 27.6538 12.6085 27.6538ZM18.4091 37.287C18.4091 38.599 17.3388 39.6607 16.0354 39.6607C14.732 39.6607 13.6616 38.5904 13.6616 37.287C13.6616 35.9836 14.732 34.9132 16.0354 34.9132C17.3388 34.9132 18.4091 35.9749 18.4091 37.287ZM37.0022 37.287C37.0022 38.599 35.9318 39.6607 34.6284 39.6607C33.325 39.6607 32.2547 38.5904 32.2547 37.287C32.2547 35.9836 33.325 34.9132 34.6284 34.9132C35.9318 34.9132 37.0022 35.9749 37.0022 37.287ZM35.7506 25.3232H12.6085C11.262 25.3232 10.1743 24.227 10.1743 22.889V17.1488V10.7267V10.2951L38.1848 14.1536V22.8804C38.1848 24.2356 37.0885 25.3232 35.7506 25.3232Z" fill="#595959"/>
</svg>
