<svg width="25" height="25" viewBox="0 0 25 25" fill="none" xmlns="http://www.w3.org/2000/svg">
<g clip-path="url(#clip0_41_606)">
<path d="M18.3594 1.51367C15.6961 1.51367 13.7199 3.14927 12.5 5.46948C11.2802 3.14941 9.304 1.51367 6.64062 1.51367C2.80229 1.51367 0 4.73706 0 8.66772C0 13.8658 4.95957 17.1292 12.0177 23.3051C12.2939 23.5467 12.7061 23.5467 12.9823 23.3051C20.0339 17.1349 25 13.8665 25 8.66772C25 4.73643 22.1973 1.51367 18.3594 1.51367ZM12.5 21.7823C5.9999 16.136 1.46484 12.9995 1.46484 8.66772C1.46484 5.42437 3.68994 2.97852 6.64062 2.97852C9.48496 2.97852 11.2476 5.61265 11.794 7.56816C11.9911 8.28154 13.0064 8.28472 13.206 7.56816C13.7452 5.63857 15.4874 2.97852 18.3594 2.97852C21.3101 2.97852 23.5352 5.42437 23.5352 8.66772C23.5352 13.002 18.9927 16.1425 12.5 21.7823Z" fill="#404040"/>
</g>
<defs>
<clipPath id="clip0_41_606">
<rect width="25" height="25" fill="white"/>
</clipPath>
</defs>
</svg>
