<svg width="25" height="25" viewBox="0 0 25 25" fill="none" xmlns="http://www.w3.org/2000/svg">
<g clip-path="url(#clip0_41_598)">
<path d="M23.288 6.89962L23.2695 6.86764C23.2438 6.81447 23.2143 6.76354 23.1812 6.71515L19.7033 0.70215C19.4527 0.269044 18.9863 0 18.486 0H6.51637C6.01524 0 5.54845 0.269678 5.29801 0.703956L1.76333 6.8361C1.73149 6.89137 1.70855 6.94918 1.69233 7.00792C1.64258 7.14225 1.61523 7.28742 1.61523 7.43888V23.277C1.61523 24.227 2.38814 24.9999 3.33814 24.9999H21.6636C22.6136 24.9999 23.3865 24.227 23.3865 23.277V7.38082C23.3865 7.35958 23.3858 7.33849 23.3847 7.31749C23.3947 7.17653 23.3641 7.03117 23.288 6.89962ZM13.2586 1.46538H18.4519L21.1878 6.19552H13.2586V1.46538ZM6.5505 1.46538H11.7932V6.19552H3.82393L6.5505 1.46538ZM21.9211 23.2771C21.9211 23.4191 21.8056 23.5346 21.6636 23.5346H3.33814C3.19615 23.5346 3.08062 23.4191 3.08062 23.2771V7.6609H21.9211V23.2771Z" fill="#404040"/>
<path d="M15.8263 13.1848C15.5402 12.8987 15.0763 12.8987 14.7901 13.1848L11.5186 16.4564L10.2605 15.1984C9.97447 14.9123 9.5105 14.9123 9.22437 15.1984C8.93823 15.4844 8.93823 15.9484 9.22437 16.2345L11.0005 18.0106C11.1436 18.1537 11.3312 18.2253 11.5186 18.2253C11.7061 18.2253 11.8937 18.1537 12.0367 18.0106L15.8263 14.221C16.1125 13.9348 16.1125 13.4709 15.8263 13.1848Z" fill="#404040"/>
</g>
<defs>
<clipPath id="clip0_41_598">
<rect width="25" height="25" fill="white"/>
</clipPath>
</defs>
</svg>
