<svg width="48" height="49" viewBox="0 0 48 49" fill="none" xmlns="http://www.w3.org/2000/svg">
<g clip-path="url(#clip0_41_636)">
<path d="M40.9706 31.6758C38.3566 29.0074 35.2452 27.032 31.8505 25.8362C35.4863 23.2799 37.875 19.0017 37.875 14.1641C37.875 6.35402 31.6507 0 24 0C16.3493 0 10.125 6.35402 10.125 14.1641C10.125 19.0017 12.5137 23.2799 16.1496 25.8362C12.7549 27.032 9.6435 29.0074 7.02947 31.6758C2.49647 36.3034 0 42.4558 0 49H3.75C3.75 37.6015 12.8341 28.3281 24 28.3281C35.1659 28.3281 44.25 37.6015 44.25 49H48C48 42.4558 45.5035 36.3034 40.9706 31.6758ZM24 24.5C18.4171 24.5 13.875 19.8634 13.875 14.1641C13.875 8.46475 18.4171 3.82812 24 3.82812C29.5829 3.82812 34.125 8.46475 34.125 14.1641C34.125 19.8634 29.5829 24.5 24 24.5Z" fill="#437FC8"/>
</g>
<defs>
<clipPath id="clip0_41_636">
<rect width="48" height="49" fill="white"/>
</clipPath>
</defs>
</svg>
